<svg width="640" height="160" viewBox="0 0 640 160" fill="none" xmlns="http://www.w3.org/2000/svg">
  <defs>
    <linearGradient id="bagGradient" x1="24" y1="20" x2="152" y2="140" gradientUnits="userSpaceOnUse">
      <stop stop-color="#7C3AED" />
      <stop offset="1" stop-color="#EC4899" />
    </linearGradient>
    <linearGradient id="coinGradient" x1="0" y1="0" x2="1" y2="1">
      <stop stop-color="#FDE047" />
      <stop offset="1" stop-color="#F59E0B" />
    </linearGradient>
  </defs>
  <rect x="20" y="20" width="132" height="120" rx="28" fill="url(#bagGradient)" />
  <path d="M56 40C56 29.5066 64.5066 21 75 21H97C107.493 21 116 29.5066 116 40V44H56V40Z" fill="#312E81" />
  <rect x="40" y="52" width="92" height="60" rx="18" fill="#0F172A" fill-opacity="0.82" />
  <circle cx="66" cy="82" r="14" fill="url(#coinGradient)" />
  <circle cx="98" cy="82" r="14" fill="url(#coinGradient)" />
  <path d="M60 82H72M66 76V88" stroke="#78350F" stroke-width="3" stroke-linecap="round" />
  <path d="M92 82H104" stroke="#78350F" stroke-width="3" stroke-linecap="round" />
  <path d="M180 105V53H199.5L224 84.5L248.5 53H268V105H247.5V82L224 112L200.5 82V105H180Z" fill="#C026D3" />
  <path d="M281 105V53H329V69H302.5V73.5H326.5V87.5H302.5V89H330V105H281Z" fill="#C026D3" />
  <path d="M338 105V53H364V87.5H391V105H338Z" fill="#C026D3" />
  <path d="M401 105V53H423V105H401Z" fill="#C026D3" />
  <path d="M435 105V53H457V75L478.5 53H505L480.5 78L507 105H479L457 82V105H435Z" fill="#C026D3" />
  <path d="M515 105V53H558C571.255 53 582 63.7452 582 77C582 90.2548 571.255 101 558 101H537V105H515ZM537 84H555.5C560.194 84 564 80.1944 564 75.5C564 70.8056 560.194 67 555.5 67H537V84Z" fill="#C026D3" />
  <path d="M590 105V53H612V105H590Z" fill="#C026D3" />
</svg>
